<?xml version="1.0" encoding="UTF-8" standalone="no"?>
<svg xmlns:rdf="http://www.w3.org/1999/02/22-rdf-syntax-ns#" xmlns="http://www.w3.org/2000/svg" enable-background="new 0 0 16 16" xml:space="preserve" height="16px" viewBox="0 0 16 16" width="16px" version="1.1" y="0px" x="0px" xmlns:cc="http://creativecommons.org/ns#" xmlns:dc="http://purl.org/dc/elements/1.1/"><metadata><rdf:RDF><cc:Work rdf:about=""><dc:format>image/svg+xml</dc:format><dc:type rdf:resource="http://purl.org/dc/dcmitype/StillImage"/><dc:title/></cc:Work></rdf:RDF></metadata><path fill="#FFF" d="M16,6.598l-11.325,2.293c-0.202,0.082-0.345,0.286-0.345,0.512,0,0.285,0.244,0.531,0.549,0.531h11.121v1.658h-11.121c-1.24,0-2.256-0.981-2.256-2.189,0-0.676,0.305-1.271,0.793-1.68l-2.054-6.02h-0.793l-0.569-0.961h2.745l0.487,1.331,12.768-0.347v4.872zm-11.548,7.043c0,0.901,0.732,1.617,1.647,1.617s1.667-0.716,1.667-1.617-0.751-1.638-1.667-1.638-1.647,0.736-1.647,1.638zm8.235,0c0,0.901,0.751,1.617,1.668,1.617,0.913,0,1.646-0.716,1.646-1.617s-0.732-1.638-1.646-1.638c-0.917,0-1.668,0.736-1.668,1.638z"/></svg>
