<?xml version="1.0" encoding="UTF-8" standalone="no"?>
<svg xmlns:rdf="http://www.w3.org/1999/02/22-rdf-syntax-ns#" xmlns="http://www.w3.org/2000/svg" height="16" width="16" version="1.1" xmlns:cc="http://creativecommons.org/ns#" xmlns:dc="http://purl.org/dc/elements/1.1/">
<metadata><rdf:RDF><cc:Work rdf:about=""><dc:format>image/svg+xml</dc:format><dc:type rdf:resource="http://purl.org/dc/dcmitype/StillImage"/><dc:title/></cc:Work></rdf:RDF></metadata><g transform="translate(0,-1036.3622)"><path fill="#FFF" d="m1.681,1038c-2.2413,2.2412-2.2413,5.8751,0,8.1164,1.8541,1.8541,4.6648,2.1589,6.8482,0.9453l5.2572,5.2573,2.2136-2.2137-5.2572-5.2571c1.2135-2.1834,0.90875-4.9942-0.94534-6.8482-2.2413-2.2413-5.8751-2.2413-8.1164,0zm1.3143,1.3142c1.5154-1.5153,3.9724-1.5153,5.4879,0,1.5153,1.5154,1.5153,3.9725-0.0000369,5.4878-1.5154,1.5154-3.9724,1.5154-5.4878,0-1.5154-1.5153-1.5154-3.9724-0.0000369-5.4878z"/></g></svg>
